<?xml version="1.0" encoding="utf-8"?>
<!-- Svg Vector Icons : http://www.onlinewebfonts.com/icon -->
<!DOCTYPE svg PUBLIC "-//W3C//DTD SVG 1.1//EN" "http://www.w3.org/Graphics/SVG/1.1/DTD/svg11.dtd">
<svg version="1.1" xmlns="http://www.w3.org/2000/svg" xmlns:xlink="http://www.w3.org/1999/xlink" x="0px" y="0px" viewBox="0 0 1000 1000" enable-background="new 0 0 1000 1000" xml:space="preserve">
<metadata> Svg Vector Icons : http://www.onlinewebfonts.com/icon </metadata>
<g><path d="M169.3,722.1c31.2,23.3,109.8,53.3,184.2,0c0.7-0.5,66.5-48.5,134.3,0c31.2,23.3,109.8,53.3,184.2,0c0.6-0.5,66.5-48.5,134.3,0c18.4,13.7,53.2,29.8,94,29.8c28.3,0,59.5-7.8,89.8-29.6L965.7,690c-67.4,48.4-131.9,2.2-134.9,0c-74-53-152.7-23-183.6,0c-67.4,48.4-131.9,2.2-134.9,0c-74.1-53-152.7-23-183.6,0c-67.4,48.4-131.8,2.2-134.8,0C119.8,637,41.1,667,10,690.3l25,31.8C35.7,721.6,101.6,673.6,169.3,722.1L169.3,722.1z M830.8,794.8c-74-53.1-152.7-23-183.6,0c-67.4,48.3-131.9,2.2-134.9,0c-74.1-53.1-152.7-23-183.6,0c-67.4,48.3-131.8,2.2-134.8,0c-74.1-53.1-152.8-23-183.9,0.2l25,31.8c0.6-0.5,66.6-48.5,134.3,0c31.2,23.3,109.8,53.3,184.2,0c0.7-0.5,66.5-48.5,134.3,0c31.2,23.3,109.8,53.3,184.2,0c0.6-0.5,66.5-48.5,134.3,0c18.4,13.7,53.2,29.8,94,29.8c28.3,0,59.5-7.8,89.8-29.6l-24.3-32.3C898.3,843.1,833.8,797,830.8,794.8L830.8,794.8z M830.8,899.5c-74-53.1-152.7-23.1-183.6,0c-67.4,48.3-131.9,2.2-134.9,0c-74.1-53.1-152.7-23.1-183.6,0c-67.4,48.3-131.8,2.2-134.8,0c-74.1-53.1-152.8-23.1-183.9,0.3l25,31.7c0.6-0.5,66.6-48.5,134.3,0c31.2,23.3,109.8,53.3,184.2,0c0.7-0.5,66.5-48.5,134.3,0c31.2,23.3,109.8,53.3,184.2,0c0.6-0.5,66.5-48.5,134.3,0c18.4,13.8,53.2,29.8,94,29.8c28.3,0,59.5-7.8,89.8-29.6l-24.3-32.3C898.3,947.8,833.8,901.7,830.8,899.5L830.8,899.5z M799.7,222l40.6-41c6.6-6.6,6.6-17.3,0-24c-6.6-6.7-17.2-6.7-23.7,0l-40.6,41c-6.6,6.6-6.6,17.3,0,24S793.2,228.6,799.7,222L799.7,222z M894.6,495.6h62.9c8.7,0,15.7-8.6,15.7-19.1c0-10.6-7-19.1-15.7-19.1h-62.9c-8.7,0-15.8,8.5-15.8,19.1C878.9,487.1,885.9,495.6,894.6,495.6L894.6,495.6z M519.4,117.5c10.6,0,19.2-7.1,19.2-15.8V38.7h-38.4v63.1C500.2,110.5,508.7,117.5,519.4,117.5L519.4,117.5z M81.3,495.6h63c8.7,0,15.7-8.6,15.7-19.1c0-10.6-7-19.1-15.7-19.1h-63c-8.7,0-15.7,8.5-15.7,19.1C65.6,487.1,72.6,495.6,81.3,495.6L81.3,495.6z M239.1,222c6.6,6.7,17.2,6.7,23.8,0c6.6-6.6,6.6-17.3,0-24l-40.6-41c-6.6-6.7-17.2-6.7-23.8,0c-6.6,6.6-6.6,17.3,0,24L239.1,222L239.1,222z M236.8,590.1l50.7-10.9c-13.7-31.5-21.5-66.3-21.5-102.8c0-141.3,113.5-255.9,253.5-255.9S772.9,335,772.9,476.4c0,36.6-7.8,71.4-21.5,102.8l50,10.9c13-34,20.6-70.5,20.6-109.2c0-168.7-135.6-305.4-302.6-305.4c-167.1,0-302.5,136.7-302.5,305.4C216.9,519.5,223.9,556.3,236.8,590.1L236.8,590.1z"/></g>
</svg>